<?xml version="1.0" standalone="no"?>
<!DOCTYPE svg PUBLIC "-//W3C//DTD SVG 20010904//EN"
 "http://www.w3.org/TR/2001/REC-SVG-20010904/DTD/svg10.dtd">
<svg version="1.0" xmlns="http://www.w3.org/2000/svg"
 width="924.000000pt" height="924.000000pt" viewBox="0 0 924.000000 924.000000"
 preserveAspectRatio="xMidYMid meet">
<metadata>
Created by potrace 1.11, written by Peter Selinger 2001-2013
</metadata>
<g transform="translate(0.000000,924.000000) scale(0.100000,-0.100000)"
fill="#000000" stroke="none">
<path d="M0 4620 l0 -4620 4620 0 4620 0 0 4620 0 4620 -4620 0 -4620 0 0
-4620z m8520 3533 l0 -88 -994 -2310 -993 -2310 241 -3 241 -2 35 -34 c19 -18
517 -449 1105 -956 l1070 -923 3 -84 3 -83 -83 0 c-46 0 -1032 47 -2193 105
-1160 58 -2134 105 -2164 105 -48 0 -144 -35 -778 -285 l-723 -285 -87 1 -88
0 -1004 1363 -1004 1362 -466 -253 -466 -253 -82 0 -83 0 0 88 0 87 289 630
288 630 78 3 c77 3 81 2 626 -180 l549 -183 0 -61 0 -61 282 -258 283 -257 3
33 c1 19 -33 955 -78 2080 -44 1126 -80 2094 -80 2153 l0 106 83 0 82 -1 1213
-1556 1212 -1556 0 -310 0 -310 66 -123 c36 -68 67 -124 69 -124 2 0 754 930
1672 2068 917 1137 1680 2079 1694 2095 25 25 34 27 103 27 l76 0 0 -87z"/>
<path d="M2605 6640 c2 -58 30 -771 61 -1585 32 -814 58 -1482 60 -1484 3 -3
968 671 992 693 10 10 -91 239 -534 1207 -300 657 -555 1212 -565 1234 l-19
40 5 -105z"/>
<path d="M6354 5183 c-637 -789 -1163 -1443 -1167 -1452 -5 -11 14 -56 60
-143 l68 -128 425 3 425 2 677 1575 c372 866 676 1575 674 1577 -1 1 -524
-644 -1162 -1434z"/>
<path d="M3115 6510 c3 -8 225 -494 493 -1080 l488 -1065 222 -3 222 -2 0 178
0 178 -711 900 c-778 984 -722 914 -714 894z"/>
<path d="M787 4253 c-8 -15 -49 -104 -92 -198 -42 -93 -81 -177 -86 -186 -5
-9 117 51 271 135 153 83 276 154 272 157 -4 4 -79 30 -167 59 -88 29 -165 55
-172 57 -6 3 -18 -8 -26 -24z"/>
<path d="M4105 4028 c-3 -13 -70 -305 -149 -650 l-143 -628 51 28 c28 16 282
156 563 312 l513 283 -50 91 c-27 50 -109 201 -182 336 l-133 245 -232 3 -233
2 -5 -22z"/>
<path d="M1492 3912 c-29 -14 -51 -30 -50 -34 4 -10 1670 -2268 1677 -2273 4
-2 55 156 115 351 l109 355 -44 44 c-75 74 -1742 1585 -1748 1584 -3 0 -30
-12 -59 -27z"/>
<path d="M3360 3548 c-179 -126 -353 -249 -388 -273 l-62 -45 266 -243 c146
-133 269 -243 273 -245 6 -2 244 1029 238 1033 -1 1 -148 -101 -327 -227z"/>
<path d="M5058 3012 c-125 -70 -228 -129 -228 -132 0 -3 748 -212 1663 -464
914 -252 1669 -461 1677 -464 8 -3 -295 263 -675 591 l-690 597 -760 -1 -760
0 -227 -127z"/>
<path d="M4160 2511 c-118 -66 -216 -124 -218 -129 -1 -5 189 -121 424 -257
l428 -248 1390 -79 c765 -43 1411 -77 1435 -75 33 1 -347 110 -1580 450 -893
246 -1633 450 -1644 453 -13 3 -94 -37 -235 -115z"/>
<path d="M3616 1988 c-96 -310 -167 -550 -164 -552 3 -3 797 309 803 316 3 3
-574 339 -595 346 -5 2 -24 -48 -44 -110z"/>
</g>
</svg>
